
<svg height="800px" width="800px" version="1.1" id="Layer_1" xmlns="http://www.w3.org/2000/svg" xmlns:xlink="http://www.w3.org/1999/xlink" viewBox="0 0 512.105 512.105" xml:space="preserve" fill="#000000" transform="rotate(45)" stroke="#000000" stroke-width="2.560525">

<g id="SVGRepo_bgCarrier" stroke-width="0"/>

<g id="SVGRepo_tracerCarrier" stroke-linecap="round" stroke-linejoin="round"/>

<g id="SVGRepo_iconCarrier"> <g> <path style="fill:#ff7d1a;" d="M44.245,181.018c-24.338,0-44.138-19.8-44.138-44.138c0-4.873,3.946-8.828,8.828-8.828 s8.828,3.955,8.828,8.828c0,14.601,11.882,26.483,26.483,26.483c4.882,0,8.828,3.955,8.828,8.828 C53.073,177.063,49.127,181.018,44.245,181.018"/> <path style="fill:#FFC571;" d="M11.943,285.552c42.417,20.418,65.324,18.962,65.324,18.962 c89.821-10.884,130.648,5.535,130.648,5.535c202.778,71.106,276.03-12.306,276.03-12.306c8.165-6.126,20.409-28.575,20.409-28.575 v-4.087c0,0-1.465-20.356-80.049-20.356c0,0-61.926,4.423-69.411-24.497c0,0-10.893-5.111-12.244,4.087l-16.34-12.253 c0,0-5.438-20.754-20.409-8.166l-12.253-8.166c0,0-2.719-14.636-16.331-8.166c0,0-11.564-4.767-16.331-12.253 c0,0-3.063-11.229-12.244-4.078c0,0-11.564,2.039-24.497-16.331s-55.455-30.279-44.915,12.244c0,0-14.627,25.176-65.315,20.418 c0,0-22.802-3.063-32.671-16.331c-9.869-13.268-52.047-18.37-48.984,4.078c3.054,22.457-4.087,24.497-4.087,24.497 s-28.513,36.405-16.331,81.655V285.552z"/> <g> <path style="fill:#ff7d1a;" d="M54.599,301.363c15.439-16.552,24.956-38.7,24.956-63.117c0-31.559-15.801-59.392-39.883-76.129 c-5.076,2.304-8.227,6.506-7.318,13.197c3.063,22.457-4.078,24.497-4.078,24.497s-28.513,36.405-16.331,81.655v4.087 C29.67,294.089,43.935,298.767,54.599,301.363"/> <path style="fill:#ff7d1a;" d="M132.521,260.311c0,4.873-3.955,8.828-8.828,8.828c-4.882,0-8.828-3.955-8.828-8.828 c0-4.873,3.946-8.828,8.828-8.828C128.566,251.483,132.521,255.438,132.521,260.311"/> <path style="fill:#ff7d1a;" d="M132.521,225c0,4.873-3.955,8.828-8.828,8.828c-4.882,0-8.828-3.955-8.828-8.828 s3.946-8.828,8.828-8.828C128.566,216.173,132.521,220.128,132.521,225"/> </g> <path style="fill:#DEDEE1;" d="M11.943,285.552c0,0-22.457,14.292-4.087,36.749c0,0-37.932,44.341,52.904,53.53 c0,0,28.584-24.497,40.828,8.157c0,0,56.311-7.592,94.076-24.947c0,0,30.623-11.229,40.828,0 c10.214,11.229,72.934,45.162,85.937,8.245c0,0,18.247-6.012,24.497,12.244c0,0,35.31,15.951,48.799-12.323l12.244-4.078 c0,0,31.259,25.044,44.526-7.627l12.253-8.157l8.554-0.556c0,0,59.639-25.574,31.047-77.621c0,0-12.235,22.449-20.409,28.575 c0,0-73.242,83.412-276.021,12.306c0,0-40.828-16.419-130.648-5.535C77.267,304.514,54.978,306.174,11.943,285.552"/> <g> <path style="fill:#ff7d1a;" d="M356.512,312.268c-41.154,0-88.029-9.092-139.317-27.03c-4.608-1.607-7.027-6.638-5.42-11.246 c1.607-4.599,6.63-7.009,11.246-5.42c49.417,17.276,94.323,26.041,133.491,26.041c4.882,0,8.828,3.955,8.828,8.828 S361.394,312.268,356.512,312.268"/> <path style="fill:#ff7d1a;" d="M223.728,213.208c-2.26,0-4.52-0.865-6.241-2.586c-3.452-3.452-3.452-9.031,0-12.482l34.154-34.154 c3.452-3.452,9.039-3.452,12.482,0c3.452,3.443,3.452,9.031,0,12.482l-34.154,34.154 C228.247,212.343,225.988,213.208,223.728,213.208"/> <path style="fill:#ff7d1a;" d="M257.366,232.539c-2.26,0-4.52-0.865-6.241-2.586c-3.452-3.452-3.452-9.031,0-12.482l33.774-33.774 c3.452-3.452,9.039-3.452,12.482,0c3.452,3.443,3.452,9.031,0,12.482l-33.774,33.774 C261.886,231.674,259.626,232.539,257.366,232.539"/> <path style="fill:#ff7d1a;" d="M289.453,244.587c-2.26,0-4.52-0.865-6.241-2.586c-3.452-3.443-3.452-9.031,0-12.482l32.371-32.38 c3.452-3.443,9.031-3.443,12.482,0c3.452,3.452,3.452,9.039,0,12.491l-32.371,32.371 C293.972,243.722,291.712,244.587,289.453,244.587"/> </g> </g> </g>

</svg>